<svg width="167" height="58" viewBox="0 0 167 58" fill="none" xmlns="http://www.w3.org/2000/svg">
<path fill-rule="evenodd" clip-rule="evenodd" d="M21.6716 33.4093C23.3621 29.4326 21.8823 25.9238 19.009 23.2576C16.0494 20.5518 11.655 18.775 7.76819 18.4365C19.812 25.4576 16.2186 30.9538 10.6 36.9595C4.93637 42.9652 -2.84078 49.5613 1.04779 57.6373C0.666135 52.647 5.1452 48.3335 10.0077 44.4018C14.8648 40.47 20.1072 36.9595 21.6716 33.4093Z" fill="url(#paint0_linear_1_130)"/>
<path fill-rule="evenodd" clip-rule="evenodd" d="M11.8638 24.2316C10.1319 28.2048 11.6118 31.7135 14.4868 34.3797C17.4446 37.0873 21.8805 38.8623 25.7258 39.2008C13.6821 32.1402 17.2736 26.6854 22.9372 20.6779C28.5595 14.674 36.3348 8.07779 32.4894 0C32.8261 4.94713 28.3902 9.30378 23.4863 13.2374C18.6274 17.1691 13.3868 20.6365 11.8638 24.2316Z" fill="url(#paint1_linear_1_130)"/>
<path fill-rule="evenodd" clip-rule="evenodd" d="M13.556 24.3576C11.8242 28.3308 13.3436 31.8845 16.2186 34.5057C16.9369 35.1826 17.6984 35.7749 18.5446 36.2826L18.4185 36.1566C15.5453 32.8999 14.0241 28.5432 15.756 23.6393C16.4743 21.6518 17.9541 19.7057 19.7706 17.675C16.9369 19.9596 14.5282 22.1577 13.556 24.3576Z" fill="#FEFEFE"/>
<path fill-rule="evenodd" clip-rule="evenodd" d="M20.6149 33.0277C21.4592 31.3787 21.164 29.8142 20.3196 28.545C20.1918 28.3326 20.0244 28.1238 19.8534 27.9527C20.5717 29.519 20.7409 31.5065 19.8534 33.5354C19.6842 33.8756 19.4735 34.2105 19.2629 34.5921C19.8534 34.0844 20.3196 33.5354 20.6149 33.0277Z" fill="#FEFEFE"/>
<path fill-rule="evenodd" clip-rule="evenodd" d="M12.8377 12.7279C14.6956 10.7818 17.4446 10.0635 18.8794 11.1203C20.3574 12.1338 19.9776 14.503 18.0765 16.4472C16.2168 18.3501 13.4696 19.0702 12.033 18.0549C10.555 16.9999 10.9367 14.6308 12.8377 12.7279Z" fill="url(#paint2_linear_1_130)"/>
<path d="M56.3927 37.0999C55.6036 37.0999 55.2091 36.8812 55.2091 36.4437V29.5179H46.0685V36.4437C46.0685 36.8812 45.6739 37.0999 44.8849 37.0999C44.088 37.0999 43.6896 36.8812 43.6896 36.4437V21.2913C43.6896 20.8538 44.088 20.6351 44.8849 20.6351C45.6739 20.6351 46.0685 20.8538 46.0685 21.2913V28.2171H55.2091V21.2913C55.2091 20.8538 55.6036 20.6351 56.3927 20.6351C57.1896 20.6351 57.588 20.8538 57.588 21.2913V36.4437C57.588 36.8812 57.1896 37.0999 56.3927 37.0999ZM65.6622 37.0999C63.8888 37.0999 62.3927 36.5726 61.1739 35.5179C59.9552 34.4554 59.3458 33.0062 59.3458 31.1702C59.3458 29.303 59.963 27.8265 61.1974 26.7405C62.4396 25.6468 63.963 25.0999 65.7677 25.0999C67.4864 25.0999 68.9669 25.553 70.2091 26.4593C71.4513 27.3577 72.0724 28.7054 72.0724 30.5023C72.0724 31.0023 71.6778 31.2523 70.8888 31.2523H61.713C61.7286 32.4085 62.0802 33.4554 62.7677 34.3929C63.4552 35.3304 64.4239 35.7991 65.6739 35.7991C66.5724 35.7991 67.4044 35.5569 68.17 35.0726C68.9747 34.5569 69.4122 33.9476 69.4825 33.2444C69.5216 32.8382 69.9083 32.6351 70.6427 32.6351C71.4474 32.6351 71.8497 32.8499 71.8497 33.2796C71.8497 33.4984 71.7833 33.764 71.6505 34.0765C71.3614 34.764 70.8107 35.3734 69.9982 35.9046C68.7794 36.7015 67.3341 37.0999 65.6622 37.0999ZM69.67 29.9515C69.42 27.5843 68.1192 26.4007 65.7677 26.4007C63.6739 26.4007 62.3692 27.5843 61.8536 29.9515H69.67ZM84.5997 37.0999C84.2482 37.0999 83.963 37.0335 83.7442 36.9007C83.1974 36.5804 82.8536 36.1624 82.713 35.6468C82.213 36.2327 81.5411 36.6234 80.6974 36.8187C79.8614 37.0062 79.1075 37.0999 78.4357 37.0999C77.3653 37.0999 76.2794 36.846 75.1778 36.3382C74.0841 35.8226 73.5372 34.9398 73.5372 33.6898C73.5372 32.2679 74.0763 31.3655 75.1544 30.9827C76.2325 30.5999 77.3497 30.4085 78.506 30.4085C78.756 30.4085 79.0607 30.4163 79.42 30.4319C79.7872 30.4476 80.131 30.4554 80.4513 30.4554C81.3341 30.4554 81.963 30.3538 82.338 30.1507V29.0374C82.338 27.2796 81.3185 26.4007 79.2794 26.4007C78.5294 26.4007 77.8614 26.5882 77.2755 26.9632C76.5958 27.4007 76.256 27.9241 76.256 28.5335C76.256 28.9632 75.8575 29.178 75.0607 29.178C74.2794 29.178 73.8888 28.9632 73.8888 28.5335C73.8888 27.6194 74.4122 26.8148 75.4591 26.1194C76.4982 25.4398 77.7716 25.0999 79.2794 25.0999C80.4903 25.0999 81.6974 25.3968 82.9005 25.9905C84.1036 26.5765 84.7052 27.5921 84.7052 29.0374V34.0882C84.7052 35.0726 84.9591 35.7093 85.4669 35.9984C85.6857 36.1234 85.795 36.2718 85.795 36.4437C85.795 36.639 85.6739 36.7991 85.4317 36.9241C85.2208 37.0413 84.9435 37.0999 84.5997 37.0999ZM78.4357 35.7991C79.3185 35.7991 80.1896 35.5374 81.0489 35.014C81.9083 34.4827 82.338 33.7327 82.338 32.764V31.639C81.8927 31.7171 81.3458 31.7562 80.6974 31.7562C80.338 31.7562 79.9747 31.7484 79.6075 31.7327C79.2403 31.7093 78.8732 31.6976 78.506 31.6976C76.7794 31.6976 75.9161 32.3616 75.9161 33.6898C75.9161 35.096 76.756 35.7991 78.4357 35.7991ZM88.1622 37.0999C87.3653 37.0999 86.9669 36.8812 86.9669 36.4437V21.2913C86.9669 20.8538 87.3653 20.6351 88.1622 20.6351C88.9513 20.6351 89.3458 20.8538 89.3458 21.2913V36.4437C89.3458 36.8812 88.9513 37.0999 88.1622 37.0999ZM96.963 37.0999C94.3302 37.0843 93.0138 36.0062 93.0138 33.8655V26.4124H91.7013C90.9122 26.4124 90.5177 26.1937 90.5177 25.7562C90.5177 25.3187 90.9122 25.0999 91.7013 25.0999H93.0138V21.2913C93.0138 20.8538 93.4122 20.6351 94.2091 20.6351C95.006 20.6351 95.4044 20.8538 95.4044 21.2913V25.0999H97.3732C98.17 25.0999 98.5685 25.3187 98.5685 25.7562C98.5685 26.1937 98.17 26.4124 97.3732 26.4124H95.4044V33.8655C95.4044 35.1468 95.9278 35.7874 96.9747 35.7874C97.1935 35.7874 97.4005 35.7679 97.5958 35.7288C97.7989 35.6819 98.0021 35.6585 98.2052 35.6585C99.0255 35.6585 99.4357 35.8851 99.4357 36.3382C99.4357 36.6429 99.1075 36.8538 98.4513 36.971C97.9357 37.0569 97.4396 37.0999 96.963 37.0999ZM110.955 37.0999C110.166 37.0999 109.772 36.8812 109.772 36.4437V30.3734C109.772 29.4593 109.522 28.5726 109.022 27.7132C108.522 26.8538 107.733 26.4241 106.654 26.4241C105.498 26.4241 104.647 26.8929 104.1 27.8304C103.553 28.7601 103.279 29.7132 103.279 30.6898V36.4437C103.279 36.8812 102.885 37.0999 102.096 37.0999C101.299 37.0999 100.9 36.8812 100.9 36.4437V21.2913C100.9 20.8538 101.299 20.6351 102.096 20.6351C102.885 20.6351 103.279 20.8538 103.279 21.2913V26.471C104.139 25.5569 105.311 25.0999 106.795 25.0999C108.358 25.0999 109.639 25.5999 110.639 26.5999C111.647 27.5921 112.15 28.846 112.15 30.3616V36.4437C112.15 36.8812 111.752 37.0999 110.955 37.0999ZM120.154 36.9593C119.358 36.9593 118.959 36.7405 118.959 36.303V22.0882H114.213C113.424 22.0882 113.029 21.8694 113.029 21.4319C113.029 20.9944 113.424 20.7757 114.213 20.7757H126.084C126.873 20.7757 127.268 20.9944 127.268 21.4319C127.268 21.8694 126.873 22.0882 126.084 22.0882H121.338V36.303C121.338 36.7405 120.943 36.9593 120.154 36.9593ZM132.6 37.0999C130.826 37.0999 129.33 36.5726 128.111 35.5179C126.893 34.4554 126.283 33.0062 126.283 31.1702C126.283 29.303 126.9 27.8265 128.135 26.7405C129.377 25.6468 130.9 25.0999 132.705 25.0999C134.424 25.0999 135.904 25.553 137.147 26.4593C138.389 27.3577 139.01 28.7054 139.01 30.5023C139.01 31.0023 138.615 31.2523 137.826 31.2523H128.65C128.666 32.4085 129.018 33.4554 129.705 34.3929C130.393 35.3304 131.361 35.7991 132.611 35.7991C133.51 35.7991 134.342 35.5569 135.108 35.0726C135.912 34.5569 136.35 33.9476 136.42 33.2444C136.459 32.8382 136.846 32.6351 137.58 32.6351C138.385 32.6351 138.787 32.8499 138.787 33.2796C138.787 33.4984 138.721 33.764 138.588 34.0765C138.299 34.764 137.748 35.3734 136.936 35.9046C135.717 36.7015 134.272 37.0999 132.6 37.0999ZM136.608 29.9515C136.358 27.5843 135.057 26.4007 132.705 26.4007C130.611 26.4007 129.307 27.5843 128.791 29.9515H136.608ZM146.44 37.0999C142.26 37.0999 140.17 35.1155 140.17 31.1468C140.17 29.2562 140.775 27.7757 141.986 26.7054C143.197 25.6351 144.721 25.0999 146.557 25.0999C147.713 25.0999 148.873 25.3968 150.037 25.9905C151.209 26.5843 151.904 27.4944 152.123 28.721C152.139 28.8148 152.147 28.8773 152.147 28.9085C152.147 29.3382 151.752 29.553 150.963 29.553C150.229 29.553 149.834 29.3538 149.779 28.9554C149.537 27.2523 148.459 26.4007 146.545 26.4007C145.217 26.4007 144.217 26.8968 143.545 27.889C142.873 28.8734 142.537 29.9671 142.537 31.1702C142.545 32.3421 142.873 33.4085 143.522 34.3694C144.17 35.3226 145.158 35.7991 146.486 35.7991C148.377 35.7991 149.483 34.9437 149.803 33.2327C149.865 32.8421 150.26 32.6468 150.986 32.6468C151.783 32.6468 152.182 32.8616 152.182 33.2913C152.182 33.2601 152.166 33.3382 152.135 33.5257C151.854 34.7366 151.123 35.6351 149.943 36.221C148.764 36.8069 147.596 37.0999 146.44 37.0999ZM163.994 37.0999C163.205 37.0999 162.811 36.8812 162.811 36.4437V30.3734C162.811 29.4593 162.561 28.5726 162.061 27.7132C161.561 26.8538 160.772 26.4241 159.693 26.4241C158.537 26.4241 157.686 26.8929 157.139 27.8304C156.592 28.7601 156.318 29.7132 156.318 30.6898V36.4437C156.318 36.8812 155.924 37.0999 155.135 37.0999C154.338 37.0999 153.94 36.8812 153.94 36.4437V21.2913C153.94 20.8538 154.338 20.6351 155.135 20.6351C155.924 20.6351 156.318 20.8538 156.318 21.2913V26.471C157.178 25.5569 158.35 25.0999 159.834 25.0999C161.397 25.0999 162.678 25.5999 163.678 26.5999C164.686 27.5921 165.19 28.846 165.19 30.3616V36.4437C165.19 36.8812 164.791 37.0999 163.994 37.0999Z" fill="black"/>
<defs>
<linearGradient id="paint0_linear_1_130" x1="0.00112418" y1="38.0448" x2="22.3913" y2="38.0448" gradientUnits="userSpaceOnUse">
<stop stop-color="#2D7741"/>
<stop offset="1" stop-color="#60BC79"/>
</linearGradient>
<linearGradient id="paint1_linear_1_130" x1="11.1241" y1="19.6083" x2="33.5232" y2="19.6083" gradientUnits="userSpaceOnUse">
<stop stop-color="#60BC79"/>
<stop offset="1" stop-color="#2D7741"/>
</linearGradient>
<linearGradient id="paint2_linear_1_130" x1="11.1298" y1="14.5757" x2="19.7859" y2="14.5757" gradientUnits="userSpaceOnUse">
<stop stop-color="#60BC79"/>
<stop offset="1" stop-color="#2D7741"/>
</linearGradient>
</defs>
</svg>
